<svg xmlns="http://www.w3.org/2000/svg" xml:space="preserve" width="438" height="438" viewBox="0 0 115.8875 115.8875"><g transform="translate(-83.521996 -156.14008)"><circle cx="141.46574" cy="214.08383" r="57.943748" fill="#fff" style="stroke-width:.264583"/><path fill="#96ca4b" stroke="#96ca4b" stroke-width="1.5875" d="M137.23241 261.36487c-24.13-2.14312-43.127082-22.48958-43.127082-47.17521 0-24.68562 18.997082-45.00562 43.127082-47.14875v-5.31812c-27.06687 2.16958-48.418749 24.87083-48.418749 52.49333s21.351879 50.32375 48.418749 52.49333z"/><path fill="#5f7fbf" stroke="#5f7fbf" stroke-width="1.5875" d="M145.69908 161.72279v5.31812c24.13 2.14313 43.12708 22.48959 43.12708 47.17521 0 24.68563-18.99708 45.03208-43.12708 47.17521v5.31812c27.06687-2.16958 48.41875-24.87083 48.41875-52.49333s-21.35188-50.32375-48.41875-52.49333z"/><g style="stroke-width:1.30216"><path d="M231.41211 167.87891a4.233335 4.233335 0 0 0-3.06836 1.04296 4.233335 4.233335 0 0 0-.38672 5.97461c4.24329 4.83089 10.25835 7.90885 15.90039 10.95899a4.233335 4.233335 0 0 0 5.73633-1.71094 4.233335 4.233335 0 0 0-1.70898-5.73633c-5.64113-3.04964-10.90759-6.0726-13.56641-9.09961a4.233335 4.233335 0 0 0-2.90625-1.42968M255.2793 257.24023a4.233335 4.233335 0 0 0-2.7461 1.71875 4.233335 4.233335 0 0 0 .99219 5.9043c1.58514 1.12899 2.912 2.27372 3.89648 3.39453a4.233335 4.233335 0 0 0 5.97461.38672 4.233335 4.233335 0 0 0 .38672-5.97461c-1.57107-1.78862-3.3991-3.3153-5.34765-4.70312a4.233335 4.233335 0 0 0-3.15625-.72657M227.76367 232.88281a4.233335 4.233335 0 0 0-4.23437 4.23438c0 5.76204 3.22834 10.39323 7.14257 13.73828 3.91424 3.34504 8.65867 5.85546 13.18555 8.30273a4.233335 4.233335 0 0 0 5.73633-1.71093 4.233335 4.233335 0 0 0-1.70898-5.73633c-4.52686-2.44726-8.83681-4.83316-11.7129-7.29102-2.87608-2.45785-4.17578-4.53697-4.17578-7.30273a4.233335 4.233335 0 0 0-4.23242-4.23438" style="color:#000;fill:#5f7fbf;stroke-width:1.30216;stroke-linecap:round;stroke-linejoin:round;-inkscape-stroke:none" transform="rotate(45 109.53179203 133.89171677)scale(.76795381)"/><path d="M255.56055 220.7793a4.233335 4.233335 0 0 0-2.75977 1.69922 4.233335 4.233335 0 0 0 .94922 5.9121c4.03858 2.9222 5.99414 5.42589 5.99414 8.72657 0 2.76576-1.2997 4.84488-4.17578 7.30273-2.87608 2.45786-7.18408 4.84376-11.71094 7.29102-5.64204 3.05013-11.6571 6.12809-15.90039 10.95898a4.233335 4.233335 0 0 0 .38672 5.97461 4.233335 4.233335 0 0 0 5.97461-.38672c2.65882-3.027 7.92528-6.04997 13.56641-9.09961 4.52688-2.44727 9.27131-4.95769 13.18554-8.30273 3.91424-3.34505 7.14063-7.97624 7.14063-13.73828 0-6.87647-4.48916-11.96166-9.49805-15.58594a4.233335 4.233335 0 0 0-3.15234-.75195M260.33008 167.87891a4.233335 4.233335 0 0 0-2.90821 1.42968c-2.65892 3.02713-7.9234 6.05001-13.56445 9.09961-4.52688 2.44727-9.27131 4.95574-13.18555 8.30078-3.91423 3.34505-7.14257 7.9782-7.14257 13.74024s3.22834 10.39324 7.14257 13.73828c3.91424 3.34504 8.65867 5.85547 13.18555 8.30273a4.233335 4.233335 0 0 0 5.73633-1.71093 4.233335 4.233335 0 0 0-1.70898-5.73828c-4.52687-2.44726-8.83681-4.83122-11.7129-7.28907-2.87608-2.45785-4.17578-4.53697-4.17578-7.30273 0-2.76575 1.2997-4.84488 4.17578-7.30274 2.87609-2.45785 7.18604-4.84376 11.7129-7.29101 5.64211-3.05018 11.65525-6.12822 15.89843-10.95899a4.233335 4.233335 0 0 0-.38672-5.97461 4.233335 4.233335 0 0 0-3.0664-1.04296" style="color:#000;fill:#96ca4b;stroke-width:1.30216;stroke-linecap:round;stroke-linejoin:round;-inkscape-stroke:none" transform="rotate(45 109.53179203 133.89171677)scale(.76795381)"/><path d="M255.55469 184.10937a4.233335 4.233335 0 0 0-2.75977 1.69727 4.233335 4.233335 0 0 0 .94922 5.91211c4.0415 2.92329 6 5.4285 6 8.73047 0 2.76576-1.2997 4.84488-4.17578 7.30273s-7.18408 4.84181-11.71094 7.28907a4.233335 4.233335 0 0 0-1.71094 5.73828 4.233335 4.233335 0 0 0 5.73829 1.71093c4.52687-2.44726 9.27131-4.95769 13.18554-8.30273 3.91424-3.34504 7.14063-7.97624 7.14063-13.73828 0-6.87917-4.49237-11.96686-9.50391-15.5918a4.233335 4.233335 0 0 0-3.15234-.74805" style="color:#000;fill:#5f7fbf;stroke-width:1.30216;stroke-linecap:round;stroke-linejoin:round;-inkscape-stroke:none" transform="rotate(45 109.53179203 133.89171677)scale(.76795381)"/><path d="M247.08008 214.74414a4.233335 4.233335 0 0 0-3.22266.33203c-4.52688 2.44727-9.27131 4.95574-13.18555 8.30078-3.91423 3.34504-7.14257 7.9782-7.14257 13.74024a4.233335 4.233335 0 0 0 4.23437 4.23242 4.233335 4.233335 0 0 0 4.23242-4.23242c0-2.76576 1.2997-4.84489 4.17578-7.30274 2.87609-2.45785 7.18603-4.84375 11.7129-7.29101a4.233335 4.233335 0 0 0 1.70898-5.73633 4.233335 4.233335 0 0 0-2.51367-2.04297" style="color:#000;fill:#5f7fbf;stroke-width:1.30216;stroke-linecap:round;stroke-linejoin:round;-inkscape-stroke:none" transform="rotate(45 109.53179203 133.89171677)scale(.76795381)"/></g></g></svg>
